<?xml version="1.0" encoding="utf-8"?>
<!-- Generator: Adobe Illustrator 22.0.1, SVG Export Plug-In . SVG Version: 6.00 Build 0)  -->
<svg version="1.1" id="Camada_1" xmlns="http://www.w3.org/2000/svg" xmlns:xlink="http://www.w3.org/1999/xlink" x="0px" y="0px"
	 viewBox="0 0 841.9 595.3" style="enable-background:new 0 0 841.9 595.3;" xml:space="preserve">
<style type="text/css">
	.st0{opacity:0.49;}
	.st1{fill:none;}
	.st2{font-family:'WanderlustLetters-Regular';}
	.st3{font-size:72px;}
	.st4{fill:url(#SVGID_1_);}
	.st5{fill:url(#SVGID_2_);}
	.st6{fill:url(#SVGID_3_);}
	.st7{fill:url(#SVGID_4_);}
	.st8{fill:url(#SVGID_5_);}
	.st9{fill:url(#SVGID_6_);}
	.st10{fill:url(#SVGID_7_);}
	.st11{fill:url(#SVGID_8_);}
	.st12{fill:url(#SVGID_9_);}
	.st13{fill:url(#SVGID_10_);}
	.st14{fill:url(#SVGID_11_);}
	.st15{fill:url(#SVGID_12_);}
	.st16{fill:url(#SVGID_13_);}
	.st17{fill:url(#SVGID_14_);}
</style>
<image style="overflow:visible;" width="960" height="625" xlink:href="BBD57FB6.png"  transform="matrix(0.5521 0 0 0.3888 141.6667 176.1378)">
</image>
<g class="st0">
	<rect x="212.7" y="430.1" class="st1" width="400" height="65"/>
	<text transform="matrix(1 0 0 1 232.7777 472.9767)" class="st2 st3">Darling Viagens</text>
	<g>
		<linearGradient id="SVGID_1_" gradientUnits="userSpaceOnUse" x1="240.9186" y1="455.0832" x2="603.0749" y2="455.0832">
			<stop  offset="0" style="stop-color:#C8A2C8"/>
			<stop  offset="0" style="stop-color:#53C9C0"/>
			<stop  offset="0" style="stop-color:#00FFFF"/>
			<stop  offset="0" style="stop-color:#FF00FF"/>
			<stop  offset="1" style="stop-color:#4B0082;stop-opacity:0.8"/>
			<stop  offset="1" style="stop-color:#8A4EA4;stop-opacity:0.9215"/>
			<stop  offset="1" style="stop-color:#000000;stop-opacity:0.8"/>
			<stop  offset="1" style="stop-color:#4E5715;stop-opacity:0.8231"/>
		</linearGradient>
		<path class="st4" d="M248.5,431c0.7,0.2,1.4,0.5,2.2,0.7c0.6,0.3,1.3,0.6,1.9,0.8c0.7,0.1,1.3,0.6,1.9,1c0.6,0.4,1.3,0.7,1.9,1.1
			c0.6,0.4,1.1,0.9,1.6,1.4c0.5,0.5,1.1,1,1.7,1.4c1.1,0.9,1.7,2,2.5,3.3c0.8,1.4,1.2,3,1.7,4.5c0.4,1.4,1.1,3,1.1,4.5
			c-0.1,1.7,0.1,3.4-0.3,5c-0.3,1.6-0.8,3-1.7,4.3c-0.9,1.4-1.6,2.8-2.5,4.1c-0.5,0.6-0.9,1.3-1.4,1.9c-0.2,0.3-0.4,0.5-0.6,0.8
			c-0.1,0.4-0.2,0.7-0.5,1c-0.4,0.5-0.9,0.9-1.3,1.4c-0.6,0.6-1.2,1.2-1.7,1.8c-0.5,0.4-1,0.9-1.6,1.3c-0.6,0.4-1.3,0.4-2,0.6
			c-0.6,0.1-1.3,0.6-1.9,0.9c-0.7,0.4-1.5,0.6-2.2,1c-0.6,0.2-1.4,0.5-2.1,0.7c-0.3,0.1-0.6,0.1-1,0.1c-0.4,0-0.8,0.2-1.2,0.4
			c-0.4,0.1-0.7,0.3-1.1,0.4c-0.2,0.1-0.4,0.4-0.7,0.4c-0.2,0.1-0.4-0.2-0.4-0.4c-0.1-0.4-0.3-0.5-0.4-0.8c-0.3-0.7-0.4-1.6-0.6-2.4
			c-0.1-0.4-0.1-0.6-0.3-1s-0.2-0.8-0.3-1.2c-0.2-1.7-0.4-3.5-0.5-5.2c-0.1-0.3,0-0.8-0.1-1.1c-0.1-0.3-0.2-0.6-0.3-1
			c-0.1-0.9-0.1-1.7-0.1-2.6c0-0.8-0.1-1.6-0.1-2.4c0-0.7-0.4-1.3-0.5-2c-0.1-1.7,0-3.5,0.1-5.2c0.1-0.9,0.1-1.7,0.1-2.6
			c0-0.9-0.1-1.8-0.1-2.7c-0.1-1.7-0.1-3.5-0.1-5.2c0-0.9-0.1-1.7-0.1-2.5c0-0.4,0-0.9,0-1.3c0-0.5,0.1-0.6,0.4-0.9
			c0.3-0.2,0.2-0.6,0.1-0.9c0-0.6-0.1-1.1-0.1-1.7c0-0.4-0.1-0.8,0.2-1c0.3-0.3,0.7-0.1,1.1-0.2c0.3-0.1,0.4-0.5,0.6-0.7
			c0.3-0.1,0.6-0.3,0.9-0.4c1-0.3,2.1-0.4,3.2-0.3h0.4c0.1,0,0.4,0,0.4,0C246.3,430.6,247.1,430.5,248.5,431z M257.1,449
			c-0.2-1.4-0.5-2.8-0.7-4.2c-0.2-1.6-0.4-3.1-1.2-4.5c-0.7-1.4-1.6-2.8-2.7-3.8c-0.6-0.5-1.2-0.9-1.7-1.3c-0.7-0.5-1.4-0.6-2.2-0.8
			c-1-0.1-2-0.1-2,0.4c0.1,1.4,0,3.8,0.1,5.6c0.2,3.5-0.2,6.9,0.1,10.3c0.1,1.7,0.3,3.3,0.4,5c0.1,0.8,0.1,1.6,0.1,2.4
			c-0.1,0.8,0.1,1.7,0,2.4c-0.1,1.7-0.1,3.3-0.1,5c0,0.4-0.1,1.2,0.5,1.1c0.8-0.1,1.4-0.2,2-0.7c0.6-0.4,1-1,1.4-1.5
			c0.5-0.5,1.1-1,1.6-1.5c0.5-0.4,0.9-1.2,1.3-1.7c0.4-0.6,0.7-1.3,1.1-2c0.7-1.3,0.9-2.8,1.4-4.2c0.3-1.1,0.6-2.7,0.7-3.8
			c0.1-0.4,0.1-0.7,0.1-1.1C257.2,449.6,257.1,449.3,257.1,449z"/>
		<linearGradient id="SVGID_2_" gradientUnits="userSpaceOnUse" x1="240.9186" y1="455.0832" x2="603.0749" y2="455.0832">
			<stop  offset="0" style="stop-color:#C8A2C8"/>
			<stop  offset="0" style="stop-color:#53C9C0"/>
			<stop  offset="0" style="stop-color:#00FFFF"/>
			<stop  offset="0" style="stop-color:#FF00FF"/>
			<stop  offset="1" style="stop-color:#4B0082;stop-opacity:0.8"/>
			<stop  offset="1" style="stop-color:#8A4EA4;stop-opacity:0.9215"/>
			<stop  offset="1" style="stop-color:#000000;stop-opacity:0.8"/>
			<stop  offset="1" style="stop-color:#4E5715;stop-opacity:0.8231"/>
		</linearGradient>
		<path class="st5" d="M299.7,451.4c-0.1,0.4-0.3,0.9-0.4,1.2c-0.5,1-0.7,1.9-1.1,2.6c-0.4,0.6-0.6,1-0.9,1.7
			c-0.1,0.4-0.3,0.8-0.5,1.2c-0.1,0.3-0.4,0.6-0.6,0.9c0,0.1-0.1,0.1-0.1,0.1c-0.4,0.6-0.6,1.2-1.1,1.8l-0.1,0.3
			c-0.1,0.2-0.1,0.1-0.1,0.4c-0.8,1.4-1.5,2.8-2.2,4.2c-0.6,1.4-1.4,2.1-2.7,3c-0.4,0.2-0.6,0.4-0.9,0.4c-0.3,0-0.6-0.1-0.9,0.1
			c-0.6,0.3-1.2,0.5-1.9,0.4c-0.6-0.1-1.2-0.4-1.7-0.6c-0.1-0.1-0.1-0.1-0.2-0.1c-0.1-0.1-0.1-0.3-0.2-0.4c-0.1-0.1-0.1-0.2-0.3-0.3
			c-0.4-0.4-1.9-3.5-1.6-4.1c-0.3,0.6-1.2,1.3-1.3,1.9c0,0.1,0,0.2,0,0.3c-0.4,0.2-0.7,0.5-1,0.9c-0.2,0.2-0.5,0.5-0.6,0.8
			c-0.4,0.2-0.7,0.4-1.1,0.6c-0.6,0.4-1.4,0.7-2.2,0.7c-1.5,0.1-2.9-0.9-4.2-1.6c-0.3-0.1-0.7-0.4-1-0.4c-0.2,0.1-0.1,0.1-0.4,0
			c-0.1-0.1-0.2-0.2-0.4-0.3c-0.2-0.4-0.4-0.6-0.6-0.9c-0.1-0.1-0.2-0.3-0.4-0.4c0-0.1,0-0.2,0-0.3c-0.1-0.6-0.6-1.2-0.8-1.9
			c-0.1-0.6-0.2-1.4-0.1-2.1c0.1-1.6,0.4-3.2,0.6-4.8c0.5-3,1.6-6.1,3.2-8.8c0.4-0.6,0.9-1.2,1.4-1.8c0.5-0.5,1.1-0.5,1.7-0.8
			c1.2-0.5,2.7-1.4,4-0.4c0.5,0.4,0.6,1,1.2,1.4c0.1,0.1,0.4,0,0.5-0.1c0.4-0.1,0.7-0.3,1.1-0.4c0.8-0.3,1.6-0.3,2.4-0.2
			c0.3,0,0.6,0,0.9,0.2c0.3,0.3,0.5,0.5,0.7,0.8c0.5,0.6,0.9,1.2,1.2,1.9c0.3,0.6,0.3,1.4,0.4,2.1c0.1,1.6,0.3,3.2,0.5,4.8
			c0.3,1.6,0.4,3.2,0.5,4.8c0,1-0.1,2.2,0.4,3.1c0.8,1.7,3.9-4,4.5-4.5c0.9-0.6,1.4-1.8,1.9-2.6c0.1-0.1,0.1-0.2,0.1-0.4
			c0-0.1,0.1-0.2,0.2-0.3s0.1-0.1,0.2-0.1c0.4-0.2,0.5-0.6,0.7-0.7c0.1-0.1,0.4-0.1,0.6-0.5s0.4-0.8,0.7-1c0.3-0.1,0.6-0.5,0.8-0.7
			c0.2-0.3,0.4-0.6,0.6-0.8C299.3,451.6,299.5,451.4,299.7,451.4z M281.5,457.2c-0.1-0.3-0.1-0.6-0.1-0.9c0-0.1-0.1-0.4,0.1-0.4
			c-0.1-1.4-0.1-2.7-0.4-4c-0.1-0.6-0.3-1.2-0.4-1.7c-0.2-0.4-0.7-0.2-1.1,0c-0.5,0.2-0.7,0.7-1,1.2c-0.4,0.6-0.7,1.1-1.1,1.7
			c-0.3,0.5-0.4,1.2-0.6,1.7c-0.1,0.6-0.3,1.3-0.4,1.9c-0.3,1.3-0.4,2.6-0.5,3.9c0,0.6-0.1,1.4-0.1,2c0,0.6-0.1,1.2,0.3,1.7
			c0.2,0.4,0.8,1,1.2,1.1c0.5,0.1,1-0.6,1.2-0.9c0.7-1.2,1.8-3,1.9-3.1c0.1-0.1,0.3-0.5,0.4-0.6c0.3-0.6,0.4-1.4,0.6-2.2
			C281.5,458,281.5,457.6,281.5,457.2z"/>
		<linearGradient id="SVGID_3_" gradientUnits="userSpaceOnUse" x1="240.9186" y1="455.0832" x2="603.0749" y2="455.0832">
			<stop  offset="0" style="stop-color:#C8A2C8"/>
			<stop  offset="0" style="stop-color:#53C9C0"/>
			<stop  offset="0" style="stop-color:#00FFFF"/>
			<stop  offset="0" style="stop-color:#FF00FF"/>
			<stop  offset="1" style="stop-color:#4B0082;stop-opacity:0.8"/>
			<stop  offset="1" style="stop-color:#8A4EA4;stop-opacity:0.9215"/>
			<stop  offset="1" style="stop-color:#000000;stop-opacity:0.8"/>
			<stop  offset="1" style="stop-color:#4E5715;stop-opacity:0.8231"/>
		</linearGradient>
		<path class="st6" d="M328.9,451.4c-0.1,0.4-0.3,0.9-0.4,1.2c-0.5,1-0.7,1.9-1.1,2.6c-0.4,0.6-0.6,1-0.9,1.7
			c-0.1,0.4-0.3,0.8-0.5,1.2c-0.1,0.3-0.4,0.6-0.6,0.9c0,0.1-0.1,0.1-0.1,0.1c-0.4,0.6-0.6,1.2-1.1,1.8c-0.4,0.6-0.8,1.4-1.2,2.1
			c-0.1,0.1-0.2,0.4-0.3,0.6l-0.1,0.1c-0.2,0.5-0.5,0.9-0.8,1.3c-0.3,0.3-0.6,0.6-0.9,0.9c-0.2,0.1,0.1,0.1-0.2,0.3l-0.4,0.3
			l-0.3,0.3c-0.6,0.4-0.7,0.4-1.2,0.9l-0.2,0.2l-0.1,0.1l-0.4,0.3c-0.6,0.6-0.9,0.6-1.7,1.1c-0.2,0.3-0.5,0.5-0.9,0.7
			c-0.6,0.4-1.4,0.5-2.2,0.6c-0.1,0-0.1,0-0.2,0c-0.1,0-0.1,0-0.1,0c-0.1,0-0.3,0-0.4,0c-0.3,0.1-0.6,0-0.9,0
			c-1-0.1-1.4-0.4-2.2-0.9c-0.6-0.4-1.2-0.8-1.7-1.4c-0.2-0.1-0.4-0.4-0.6-0.5c0-0.1-0.1-0.1-0.1-0.2c-0.1-0.1-0.2-0.3-0.3-0.4
			c-0.4-0.6-0.8-1.2-1.1-1.9c0-0.1,0-0.1,0-0.1c0-0.7-0.3-1.4-0.4-2.2s-0.2-1.4-0.3-2.2c-0.2-1.6-0.2-3.2-0.2-4.8
			c0-0.8-0.1-1.6-0.1-2.4c0.1-0.8,0.1-1.6-0.1-2.4c0-0.6,0-1.7-0.7-1.9c-0.5-0.2-1.4,0.2-1.9,0.4c-0.7,0.2-1.4,0.4-1.9,1
			c-0.2,0.2-0.4,0.4-0.4,0.7c-0.1,0-0.1,0.1-0.1,0.1c-0.4,0.4-0.9,1.1-1.3,1.7c-0.2,0.1-0.4,0.4-0.5,0.5c-0.2,0.2-0.4,0.5-0.6,0.8
			c0,0-0.1,0.1-0.2,0.1c-0.1,0.1-0.1,0.1-0.1,0.1c-0.1,0.1-0.1,0.1-0.2,0.2c-0.1,0.1-0.3,0.3-0.4,0.4c-0.1,0.1-0.5,0.4-0.9,0.7
			c0-0.1,0-0.1,0-0.2c0.1-0.1,0.3-0.3,0.3-0.4c0.3-0.6,0.5-1,0.7-1.6c0.3-0.6,0.6-1.2,0.8-1.8c0.1-0.5-1-0.5-1.3-0.5
			c-1.1-0.3-2.6-0.9-3.1-1.9c-0.4-0.6-0.4-1.4-0.6-2.2c-0.1-0.8-0.4-1.4-0.1-2.2c0.3-1.3,0.8-2.7,2.2-3.2c0.7-0.2,1.4-0.3,2.2-0.4
			c0.6-0.1,1.3-0.4,1.9-0.5c0.7-0.1,1.7-0.4,2.4,0c0.5,0.3,0.9,0.7,1.1,1.3c0.3,0.8,0,1.5-0.2,2.3c-0.1,0.7-0.4,1.5-0.5,2.3
			c-0.2,0.8,1.2,0.1,1.4-0.1c0.7-0.3,1.4-0.6,2.1-0.9c0.8-0.4,1.6-0.7,2.4-1c0.6-0.3,1.3-0.6,2.1-0.7c0.4,0,0.8,0,1.2,0.1
			c0.3,0.1,0.6,0,1,0c0.6-0.1,1.4-0.1,2,0.1c1.3,0.4,2.1,1.9,2.1,3.2c0,0.7,0.1,1.5-0.1,2.3c-0.1,0.7-0.2,1.4-0.2,2.2
			c0,1.6,0,3.2,0,4.8c0,0.3,0,0.3,0,0.6v0.2c0,1.6-0.2,3.5,0.5,4.8c0.4,0.6,0.7,0.9,1.2,0.9c0.1,0,0.1,0,0.1,0
			c0.6-0.1,1.4-0.6,1.9-1.1c0.1,0,0.1,0,0.1-0.1c1-0.5,1.9-1.4,2.6-2.4c0.1,0,0.3-0.1,0.4-0.2c0.3-0.4,0.4-0.8,0.6-1.2
			c0.9-0.6,1.4-1.8,1.9-2.6c0.1-0.1,0.1-0.2,0.1-0.4c0-0.1,0.1-0.1,0.2-0.3c0.1-0.1,0.1-0.1,0.2-0.1c0.4-0.2,0.6-0.6,0.7-0.7
			c0.2-0.1,0.4-0.1,0.6-0.5s0.4-0.8,0.7-1c0.3-0.1,0.6-0.5,0.8-0.7c0.2-0.2,0.4-0.6,0.6-0.8C328.5,451.6,328.7,451.4,328.9,451.4z
			 M298.2,445.3c0.1-0.7-0.4-0.8-0.9-0.9c-0.4,0-1.4-0.3-1.5,0.1c-0.1,0.3-0.2,0.5-0.2,0.9c0,0.2,0.1,0.6,0.1,0.8
			c0.1,0.6,0.1,1.1,0.1,1.6c0.1,0.3,0.2,0.5,0.6,0.6c0.2,0.1,0.8,0.3,1.1,0.1c0.4-0.2,0.4-1.2,0.4-1.4c0.1-0.6,0.1-0.9,0.3-1.5
			C298.2,445.6,298.2,445.3,298.2,445.3z"/>
		<linearGradient id="SVGID_4_" gradientUnits="userSpaceOnUse" x1="240.9186" y1="455.0832" x2="603.0749" y2="455.0832">
			<stop  offset="0" style="stop-color:#C8A2C8"/>
			<stop  offset="0" style="stop-color:#53C9C0"/>
			<stop  offset="0" style="stop-color:#00FFFF"/>
			<stop  offset="0" style="stop-color:#FF00FF"/>
			<stop  offset="1" style="stop-color:#4B0082;stop-opacity:0.8"/>
			<stop  offset="1" style="stop-color:#8A4EA4;stop-opacity:0.9215"/>
			<stop  offset="1" style="stop-color:#000000;stop-opacity:0.8"/>
			<stop  offset="1" style="stop-color:#4E5715;stop-opacity:0.8231"/>
		</linearGradient>
		<path class="st7" d="M345.5,451.4c-0.2,0.4-0.3,0.9-0.5,1.2c-0.4,1-0.6,1.9-1,2.6c-0.4,0.6-0.6,1-0.9,1.7
			c-0.2,0.4-0.4,0.8-0.5,1.2c-0.2,0.3-0.4,0.6-0.6,0.9c0,0.1,0,0.1,0,0.1c-0.4,0.6-0.6,1.2-1.1,1.8c-0.4,0.6-0.9,1.4-1.2,2.1
			c-0.1,0.1-0.2,0.4-0.3,0.6c-0.1,0-0.1,0.1-0.1,0.1c-0.2,0.5-0.4,0.9-0.7,1.3c-0.6,0.6-0.8,1.4-1.2,2.1c-0.5,0.9-1,1.9-1.7,2.7
			c-1.4,1.7-3.6,1.7-5.2,0.4c-0.1-0.1-0.3-0.2-0.4-0.4c-0.2-0.4-0.5-0.6-0.9-0.9c0,0,0-0.1-0.1-0.1c-0.6-1.2-1-1.3-1.5-2.5
			c-0.3-0.6-0.5-1.3-0.7-1.9c0-0.2-0.1-0.4-0.1-0.6c-0.1-0.3-0.3-0.6-0.4-0.8c-0.1-0.4-0.3-0.7-0.4-1.1c-0.1-0.5-0.3-0.9-0.5-1.4
			c-0.1-0.2-0.1-0.4-0.1-0.4c0-0.1,0-0.1,0-0.1c0-0.1,0-0.3-0.1-0.5c-0.2-1.2-0.6-2.4-0.7-3.7c-0.1-1.3-0.1-1.9-0.4-3.2l-0.1-0.6
			c0-0.1,0-0.1,0-0.2c0.1-1.4,0.2-2.7-0.1-4.1c0-0.6,0.1-1.2,0.1-1.8c0-0.8,0-1.5,0.1-2.3c0.1-1.6,0.2-3.2,0.5-4.8
			c0.1-0.9,0.1-1.9,0.2-2.9c0.1-0.2,0.2-0.5,0.3-0.8c0.1-1.7,1.2-3,1.7-4.5c0.1-0.1,0.1-0.2,0.2-0.3c0.4-0.6,1.1-1.2,1.7-1.7
			c0.6-0.5,1.1-1.1,1.9-1.1c0.7,0,1.5-0.1,2.2,0.3c0.6,0.3,1,0.8,1.3,1.4c0.4,0.6,0.8,1.4,1.1,2.1c0.2,0.7,0.2,1.5,0.2,2.2
			c-0.1,1.6-0.1,3.2-0.4,4.8c-0.2,1.5-0.6,3.1-0.9,4.5c-0.4,1.5-1.1,3-1.5,4.5c-0.5,1.5-1.1,3-1.6,4.4c-0.3,0.8-0.6,1.6-0.8,2.4
			c-0.2,0.7-0.1,1.3,0,2.1c0.2,1.5,0.2,1.9,0.7,3.4c0.4,1.4,0.9,2.8,1.6,4.2c0.7,1.4,1.4,3.1,2.9,1.1c1-1.4,1.9-2.9,2.8-4.3
			c0.1,0,0.3-0.1,0.4-0.2c0.2-0.4,0.4-0.8,0.6-1.2c0.9-0.6,1.4-1.8,1.9-2.6c0.1-0.1,0.1-0.2,0.1-0.4c0.1-0.1,0.1-0.1,0.3-0.3
			c0.1-0.1,0.1-0.1,0.2-0.1c0.3-0.2,0.5-0.6,0.7-0.7c0.1-0.1,0.4-0.1,0.6-0.5c0.3-0.4,0.4-0.8,0.7-1c0.4-0.1,0.6-0.5,0.9-0.7
			c0.2-0.2,0.3-0.5,0.6-0.8C345.1,451.6,345.3,451.5,345.5,451.4z M330.7,444.4c0.2-0.7,0.4-1.5,0.5-2.2c0.1-0.6,0.4-1.2,0.4-1.9
			c0.1-1.4,0.4-2.8,0.4-4.2c0-0.8,0.1-1.4,0.1-2.2c-0.1-0.4-0.1-1.2-0.6-1.4c-0.6-0.1-0.9,0.6-1,1.2c-0.2,0.6-0.4,1.3-0.5,2
			c-0.3,1.4-0.7,2.9-0.9,4.3c-0.2,1.4-0.2,3.1-0.2,4.5c0.1,0.8,0.1,1.5,0.1,2.3c0.1,0.4,0.1,1.8,0.5,1.9
			C330,447.3,330.3,445.8,330.7,444.4z"/>
		<linearGradient id="SVGID_5_" gradientUnits="userSpaceOnUse" x1="240.9186" y1="455.0832" x2="603.0749" y2="455.0832">
			<stop  offset="0" style="stop-color:#C8A2C8"/>
			<stop  offset="0" style="stop-color:#53C9C0"/>
			<stop  offset="0" style="stop-color:#00FFFF"/>
			<stop  offset="0" style="stop-color:#FF00FF"/>
			<stop  offset="1" style="stop-color:#4B0082;stop-opacity:0.8"/>
			<stop  offset="1" style="stop-color:#8A4EA4;stop-opacity:0.9215"/>
			<stop  offset="1" style="stop-color:#000000;stop-opacity:0.8"/>
			<stop  offset="1" style="stop-color:#4E5715;stop-opacity:0.8231"/>
		</linearGradient>
		<path class="st8" d="M365.8,451.4c-0.2,0.4-0.3,0.8-0.5,1.2c-0.4,1-0.6,1.9-1,2.6c-0.4,0.6-0.6,1-0.9,1.7c0,0.1,0,0.1-0.1,0.2
			l-0.1,0.4c-0.1,0.3-0.1,0.1-0.2,0.4c-0.4,0.9-0.8,2-1.3,2.8c-0.4,0.6-0.6,1.2-0.9,1.7c-0.4,0.4-0.6,0.9-0.9,1.4
			c-0.4,0.6-0.8,1.1-1.1,1.7c-1.7,2.2-2.5,3.2-3,3.6c-0.8,0.9-2.3,3.1-3.4,3.7c-0.4,0.2-0.9,0.5-1.3,0.8c-0.4,0.3-0.6,0.6-1.1,0.7
			c-0.5,0.2-1.2,0.4-1.7,0.4c-0.6-0.1-1.2-0.4-1.7-0.6c-0.9-0.4-1.9-1.6-2.3-2.4c-0.5-1.1-1-2.2-1.4-3.3c-0.9-2.7-1.9-5.3-1.9-8.3
			c-0.1-1.1-0.1-2.2-0.1-3.2c-0.1-1.1-0.2-2.2-0.1-3.3c0.1-1,0.4-1.9,0.9-2.8c0.4-0.9,0.9-1.7,1.7-2.2c1.4-0.9,3.7-1.2,5.2-0.1
			c0.5,0.3,0.9,0.8,1,1.4c0.1,0.3,0.1,0.6,0.1,0.9c0.1,0.4,0.2,0.6,0.4,1c0.2,0.7-0.1,1.4-0.4,2.1c-0.4,0.6-0.4,1.4-0.7,2
			c-0.3,0.7-0.5,1.4-0.9,2.2c-0.3,0.4-0.9,0.8-1,1.4c-0.1,0.4,0,0.7,0.1,1.1c0.1,0.4,0.1,0.7,0.1,1.1c0.1,0.8,0.2,1.5,0.4,2.2
			c0.4,1.5,1.2,3,1.7,4.4c0.3,0.7,0.4,1.4,0.9,2c0.2,0.2,0.4,0.5,0.7,0.5c0.3,0,0.6-0.4,0.8-0.6c0.6-0.6,1.2-1.2,1.7-1.7
			c0.1,0,0.1,0,0.1,0c0.6-0.6,1.1-1.2,1.5-1.9c0.1-0.1,0.3-0.3,0.4-0.4c1.2-1.4,2.2-3,3.2-4.6c0.4-0.5,0.5-0.6,0.7-1.2
			c0.1-0.3,0.6-1.8,0.9-1.9c0.1-0.1,0.3-0.7,0.5-1.2h-0.1c0.1-0.1,0.1-0.1,0.2-0.3c0,0,0,0,0-0.1c0.1-0.1,0.2-0.3,0.3-0.4
			c0.1-0.1,0.1-0.2,0.1-0.4c0.1-0.1,0.1-0.2,0.2-0.3c0.1-0.1,0.2-0.1,0.3-0.1c0.3-0.2,0.5-0.6,0.7-0.7c0.1-0.1,0.4-0.1,0.6-0.5
			c0.3-0.4,0.4-0.8,0.7-1c0.4-0.1,0.6-0.5,0.9-0.7c0.2-0.3,0.3-0.6,0.6-0.8C365.3,451.6,365.5,451.4,365.8,451.4z M345.3,442.9
			c-0.4-0.6-0.7-1.4-0.6-2.1c0-0.7,0.3-1.5,0.9-2c0.2-0.2,0.6-0.3,0.9-0.4c0.2-0.1,0.8,0.1,1.1,0.1c1.5,0.3,2.5,1.9,2.7,3.4
			c0,0.1,0,0.1,0,0.2c0,0.1-0.1,1.6-0.9,1.9c-0.2,0.1-0.6,0.2-0.9,0.2c-0.2-0.1-0.4,0.1-0.6,0.1c-0.2,0.1-0.4,0-0.6-0.1
			C346.5,443.9,345.8,443.5,345.3,442.9z M347,452.5c0.1-0.5,0.4-1.9-0.6-1.5c-0.8,0.4-0.8,1.4-0.8,2.1c0,0.6,0,1.1,0.1,1.6
			c0,0.4,0.1,0.6,0.4,0.9c0.1-0.1,0.1-0.3,0.2-0.4C346.8,454.4,346.8,453.2,347,452.5z"/>
		<linearGradient id="SVGID_6_" gradientUnits="userSpaceOnUse" x1="240.9186" y1="455.0832" x2="603.0749" y2="455.0832">
			<stop  offset="0" style="stop-color:#C8A2C8"/>
			<stop  offset="0" style="stop-color:#53C9C0"/>
			<stop  offset="0" style="stop-color:#00FFFF"/>
			<stop  offset="0" style="stop-color:#FF00FF"/>
			<stop  offset="1" style="stop-color:#4B0082;stop-opacity:0.8"/>
			<stop  offset="1" style="stop-color:#8A4EA4;stop-opacity:0.9215"/>
			<stop  offset="1" style="stop-color:#000000;stop-opacity:0.8"/>
			<stop  offset="1" style="stop-color:#4E5715;stop-opacity:0.8231"/>
		</linearGradient>
		<path class="st9" d="M387.8,454.8c0,0.8,0,1.6,0,2.4c0,1.3,0,2.6-0.1,3.8c-0.2,2.5-1.1,4.9-2.1,7.2c-0.5,1.1-0.9,2.4-1.6,3.4
			c-0.4,0.5-0.6,1-1,1.6c-0.4,0.4-0.6,1-1.2,1.4c-0.4,0.3-0.7,0.8-1.2,1c-0.5,0.1-1.2-0.1-1.7-0.2c-1-0.2-2.1-0.6-2.8-1.4
			c-0.5-0.5-0.8-1.3-0.9-1.9c-0.1-0.7-0.1-1.4-0.2-2.1c-0.1-0.9,0.1-1.7,0.2-2.4c0.1-0.7,0.1-1.4,0.1-2.2c0-1.6,0.2-3.2,0.3-4.8
			c0-0.9,0.1-1.7,0.1-2.6c0.1-0.7,0.2-1.5,0.1-2.2c-0.1-0.5-0.4-1.7-0.9-1.9c-0.6-0.2-1.3,0.6-1.7,1c-1,1-2.2,2.1-2.8,3.4
			c-0.7,1.4-1.3,2.8-1.9,4.2c-0.3,0.7-0.6,1.4-0.8,2.2c-0.1,0.6,0,1.2-0.2,1.9c-0.1,0.6-0.6,1.1-1.1,1.6c-0.4,0.4-0.7,1.3-1.2,1.4
			c-0.6,0.1-1.2-0.9-1.7-0.1c-0.4,0.6-0.8,0.5-1.4,0.1c-0.6-0.4-1.2-0.9-1.6-1.5c-0.3-0.6-0.3-1.2-0.2-1.9c0.1-0.9,0.3-1.7,0.3-2.4
			s0-1.5,0.1-2.3c0.4-1.6,0.3-3.2,0.3-4.9c0-1.6-0.1-3.2-0.1-4.9c0-0.9,0-1.7,0-2.6c0-0.4-0.1-0.8-0.1-1.2c0-0.3-0.1-0.8,0.1-1.1
			c0.1-0.3,0.6-0.2,0.9-0.2c0.3,0,0.6-0.1,1,0c0.6,0,1.2,0.3,1.7,0.7c0.5,0.5,1,0.9,1.3,1.6c0.2,0.6,0.2,1.4,0.2,2.1
			c0,0.8,0.1,1.7,0.1,2.5c0.1,0.2-0.1,0.8,0.1,0.9c0.2-0.2,0.4-0.4,0.6-0.6c0.9-1.2,1.8-2.6,3-3.5c0.6-0.4,1.3-0.8,1.8-1.2
			c0.6-0.4,1.1-0.8,1.7-1.1c1.3-0.7,2.6-1.2,4-1.2c0.9,0.1,1.7,0.3,2.4,0.4c0.6,0.1,1.4,0.1,2,0.4c1.4,0.5,2.3,1.6,3.3,2.6
			c0.6,0.6,1.2,1,1.7,1.7C387.6,452.5,387.7,453.6,387.8,454.8z"/>
		<linearGradient id="SVGID_7_" gradientUnits="userSpaceOnUse" x1="240.9186" y1="455.0832" x2="603.0749" y2="455.0832">
			<stop  offset="0" style="stop-color:#C8A2C8"/>
			<stop  offset="0" style="stop-color:#53C9C0"/>
			<stop  offset="0" style="stop-color:#00FFFF"/>
			<stop  offset="0" style="stop-color:#FF00FF"/>
			<stop  offset="1" style="stop-color:#4B0082;stop-opacity:0.8"/>
			<stop  offset="1" style="stop-color:#8A4EA4;stop-opacity:0.9215"/>
			<stop  offset="1" style="stop-color:#000000;stop-opacity:0.8"/>
			<stop  offset="1" style="stop-color:#4E5715;stop-opacity:0.8231"/>
		</linearGradient>
		<path class="st10" d="M418.8,451.4c-0.1,0.4-0.3,0.9-0.5,1.3c-0.4,0.9-0.6,1.8-1,2.5c-0.4,0.6-0.6,1-0.9,1.7
			c-0.1,0.3-0.2,0.6-0.4,0.9c0,0,0,0,0,0.1c-0.1,0.1-0.1,0.2-0.1,0.2c-0.1,0.1-0.1,0.1-0.1,0.3c-0.1,0.1-0.1,0.1-0.2,0.3
			c-0.1,0.1-0.1,0.2-0.2,0.4l-0.1,0.1c-0.1,0.1-0.2,0.3-0.3,0.4c-0.3,0.4-0.5,0.7-0.8,1.1c-0.1,0.3-0.2,0.6-0.4,0.9
			c-0.1,0.1-0.2,0.4-0.4,0.5c-0.8,1.2-1.7,2.2-2.4,3.4c-0.3,0.4-0.4,0.9-0.8,1.4c-0.6,0.9-1.3,1.8-1.9,2.7c0.1,1.2,0,2.2,0.1,3.3
			c0,0.8-0.1,1.5-0.1,2.3c-0.1,1.6-0.2,3.2-0.3,4.8c-0.1,0.8,0.1,1.6,0,2.4s-0.1,1.5-0.2,2.3c0,0.4,0,0.8-0.1,1.2
			c-0.1,0.4-0.1,0.6-0.1,1c-0.1,0.4,0.1,0.7,0.1,1.1c0,0.4-0.1,0.7-0.1,1.1c-0.1,0.7,0,1.4-0.2,2.1c-0.2,0.6-0.5,1.2-0.9,1.7
			c-0.7,0.9-2.2,1.4-3.4,1.3c-0.3,0-0.6,0.1-0.9,0.1c-1.4-0.4-2.6-1.3-4.1-1.4c-0.4-0.5-0.9-1-1.4-1.4c-0.3-0.3-0.6-0.5-0.9-0.7
			c-0.3-0.2-0.6-0.4-0.9-0.6c-0.5-0.5-1-1.1-1.4-1.7c-0.4-0.6-0.8-1.3-1.2-1.9c-0.4-0.6-0.7-1.2-0.4-1.9c0.7-1.4,1.4-2.8,2.1-4.2
			c0.4-0.6,0.6-1.4,1.1-2c0.4-0.5,0.9-0.9,1.2-1.4c1-1.2,1.9-2.2,3-3.5c0.2-0.2,0.3-0.5,0.6-0.7c0.3-0.2,0.6-0.4,0.9-0.6
			c0.6-0.4,0.9-0.8,0.9-1.5c0.1-1.4,0.3-5.1,0.3-6.6c-0.7,0.2-1.4,0.4-2,0.6c-0.4,0.1-0.7,0.1-1,0.3c-0.3,0.1-0.4,0.3-0.7,0.4
			c-0.6,0.1-1.3-0.2-1.8-0.4c-0.6-0.3-1.2-0.6-1.8-0.8c-0.6-0.3-1.2-0.5-1.6-1c-0.4-0.4-0.9-0.9-1.2-1.4c-0.7-1.1-1.3-2.2-1.5-3.5
			c-0.4-2.4-0.1-5.2,1.2-7.3c1.3-2.2,3.4-3.6,5.6-4.8c0.6-0.4,1.4-0.7,2.1-0.6c0.6,0.1,1.2,0.5,1.7,0.9s0.6,1.2,1,1.5
			c0.2,0.1,0.5,0.3,0.7,0.4s0.2,0.1,0.4-0.1c0.1-0.1,0.1-0.3,0.1-0.5c0.1-0.4,0.1-0.7,0.4-1.1c0.1-0.3,0.3-0.6,0.4-0.9
			c0.2-0.4,0.4-1,1-1c0.6,0.1,1.2,0.6,1.7,0.9c0.6,0.4,1.1,0.7,1.4,1.3c0.3,0.7,0.4,1.5,0.4,2.2c0.1,0.7,0,1.4,0.2,2.2
			c0.4,1.5,0.3,3,0.1,4.5c-0.4,3-0.6,6.1-0.6,9.2c0.4-0.4,0.9-0.8,1.2-1.3c0.3-0.5,0.4-0.9,0.9-1.5c0.9-0.9,2.2-2.9,3-4
			c0.4-0.4,0.6-0.9,0.9-1.5c0.1-0.1,0.1-0.2,0.1-0.4c0.1-0.1,0.2-0.1,0.3-0.3c0.1,0,0.1-0.1,0.2-0.1c0.3-0.2,0.5-0.6,0.7-0.7
			c0.1-0.1,0.4-0.1,0.6-0.5c0.2-0.4,0.4-0.8,0.7-0.9c0.3-0.2,0.6-0.6,0.8-0.8c0.2-0.2,0.4-0.5,0.6-0.8
			C418.3,451.7,418.5,451.5,418.8,451.4z M402.9,452.2c0.1-0.5-0.2-0.9-0.6-1.2c-0.2-0.1-0.6-0.4-0.9-0.3c-0.2,0.1-0.4,0.3-0.6,0.4
			c-1.2,0.5-1.8,1.2-2.4,2.2c-0.6,1.2-1.5,2.2-1.7,3.6c-0.2,1.4-0.4,2.8-0.1,4.2c0.1,0.6,0.3,1.3,0.9,1.7c0.4,0.3,1.2,0.2,1.6,0
			c0.6-0.2,1.1-0.8,1.5-1.2c0.5-0.4,1-0.9,1.4-1.4c0.5-0.6,0.4-1.2,0.4-1.9c0-0.6,0.1-1.3,0.1-1.9c0.1-1.4,0.1-1.4,0.3-2.8
			C402.6,455.6,403.1,451.7,402.9,452.2z M402.1,475.3c-0.7,0.9-1.9,1.2-2.2,2.4c-0.1,0.3-0.1,0.6-0.4,0.8s-0.6,0.3-0.9,0.6
			c-0.5,0.5-0.3,1.4-0.9,1.9c-0.4,0.4-0.4,0.5-0.4,1c0,0.4-0.2,0.9-0.4,1.3c-0.4,0.9-0.6,1.6-0.3,2.5c0.1,0.4,0.4,0.7,0.6,1.1
			c0.1,0.2,0.8,0.4,1.1,0.6c0.8,0.4,1.5,0.9,2.2,1.7c0.2-0.3,0.3-0.5,0.2-0.9s0-0.8,0-1.2c0.1-0.9,0.2-1.9,0.3-2.8
			c0.1-0.9,0.1-1.8,0.3-2.7c0.1-0.8,0.4-1.6,0.4-2.4c0-0.5,0-1,0-1.5c0-0.3-0.1-0.6,0-0.9C401.8,476.3,402.2,475.7,402.1,475.3z"/>
		<linearGradient id="SVGID_8_" gradientUnits="userSpaceOnUse" x1="240.9186" y1="455.0832" x2="603.0749" y2="455.0832">
			<stop  offset="0" style="stop-color:#C8A2C8"/>
			<stop  offset="0" style="stop-color:#53C9C0"/>
			<stop  offset="0" style="stop-color:#00FFFF"/>
			<stop  offset="0" style="stop-color:#FF00FF"/>
			<stop  offset="1" style="stop-color:#4B0082;stop-opacity:0.8"/>
			<stop  offset="1" style="stop-color:#8A4EA4;stop-opacity:0.9215"/>
			<stop  offset="1" style="stop-color:#000000;stop-opacity:0.8"/>
			<stop  offset="1" style="stop-color:#4E5715;stop-opacity:0.8231"/>
		</linearGradient>
		<path class="st11" d="M447.3,449.5c0.4-1.5,1-2.9,1.7-4.3c0.6-1.5,1.2-3,1.7-4.6c0.2-0.7,0.5-1.4,0.9-2.1c0.4-0.7,0.9-1.3,1.2-2
			c0.6-1.5,1.3-2.9,1.9-4.3c1.3-2.9,2.4-5.8,4-8.6c0.8-1.4,1.7-2.7,2.6-4c0.4-0.6,0.9-1.4,1.3-2c0.2-0.3,0.4-0.6,0.6-0.9
			c0.3-0.4,0.4-0.4,0.8-0.6c0.1,0.4-0.1,0.6-0.3,1c-0.1,0.3-0.4,0.6-0.6,0.9c-0.4,0.7-0.6,1.4-0.9,2.2c-0.3,0.6-0.7,1.2-0.9,1.9
			c-0.2,0.7-0.4,1.5-0.6,2.2c-1.2,3-2.3,5.9-3.5,8.9c-0.6,1.4-1,2.9-1.4,4.4c-0.4,1.6-0.9,3.1-1.4,4.7c-0.5,1.5-1.1,3-1.6,4.5
			c-0.3,0.7-0.3,1.4-0.4,2.2c-0.1,0.8-0.2,1.6-0.4,2.4c-0.5,3.2-1.4,6.3-1.9,9.4c-0.3,1.7-0.4,3.2-0.6,4.8c-0.2,1.5-0.6,3-0.3,4.5
			c0.1,0.8,0.4,1.5,0.5,2.3c0.1,0.7,0.4,1.4,0.6,2.1c0.1,0.6,0.1,1.4-0.5,1.5c-0.2,0.1-0.4,0.1-0.6,0.4c-0.1,0.3-0.3,0.6-0.6,0.8
			c-0.4,0.4-0.9,0.9-1.5,0.6c-0.6-0.4-1.2-0.7-1.8-1.3c-0.4-0.4-0.8-1-1.2-1.6s-0.8-1-1.2-1.6c-0.9-1.2-1.2-2.6-1.7-3.9
			c-0.6-1.6-1.4-3-2-4.5c-0.6-1.4-1.2-3-1.7-4.5c-0.5-1.4-0.9-3-1.4-4.5c-0.6-1.5-1.2-3-1.7-4.5c-0.6-1.5-1-3-1.4-4.5
			c-0.4-1.5-0.8-3-1.3-4.5c-0.6-1.5-1.2-3-1.4-4.5c-0.3-1.6-0.6-3.2-0.9-4.8s-0.4-3.2-0.6-4.8c-0.1-0.8,0.1-1.1,0.6-1.6
			c0.6-0.6,1.2-0.9,1.9-1.3c0.5-0.3,1.2-0.9,1.8-0.8c0.3,0.1,0.5,0.3,0.9,0.3c0.3,0.1,0.6,0.1,0.8,0.3c0.4,0.5,0.6,1.2,0.9,1.8
			c0.4,0.7,0.9,1.4,1.3,2c0.8,1.3,1.1,2.8,1.6,4.2c1.2,3,2,6,2.8,9.1c0.7,2.9,1.4,5.7,2.4,8.4c0.2,0.6,0.4,1.3,0.5,1.9
			c0.1,0.4,0.1,0.7,0.1,1.1c0,0.4-0.1,0.7-0.1,1.1c0.1,0.6,0.4,1.4,0.6,2.2c0.1,0.3,0.4,1.8,0.8,1.8c0-0.2,0.1-0.4,0.1-0.4
			C446.3,455.3,446.4,452.5,447.3,449.5z"/>
		<linearGradient id="SVGID_9_" gradientUnits="userSpaceOnUse" x1="240.9186" y1="455.0832" x2="603.0749" y2="455.0832">
			<stop  offset="0" style="stop-color:#C8A2C8"/>
			<stop  offset="0" style="stop-color:#53C9C0"/>
			<stop  offset="0" style="stop-color:#00FFFF"/>
			<stop  offset="0" style="stop-color:#FF00FF"/>
			<stop  offset="1" style="stop-color:#4B0082;stop-opacity:0.8"/>
			<stop  offset="1" style="stop-color:#8A4EA4;stop-opacity:0.9215"/>
			<stop  offset="1" style="stop-color:#000000;stop-opacity:0.8"/>
			<stop  offset="1" style="stop-color:#4E5715;stop-opacity:0.8231"/>
		</linearGradient>
		<path class="st12" d="M484.9,451.4c-0.2,0.4-0.3,0.8-0.5,1.2c-0.4,1-0.6,1.9-1,2.6c-0.4,0.6-0.6,1-0.9,1.7c0,0.1,0,0.1-0.1,0.2
			l-0.1,0.4c-0.1,0.3-0.1,0.1-0.2,0.4c-0.4,0.9-0.8,2-1.3,2.8c-0.4,0.6-0.6,1.2-0.9,1.7c-0.4,0.4-0.6,0.9-0.9,1.4
			c-0.4,0.6-0.8,1.1-1.1,1.7c-1.7,2.2-2.5,3.2-3,3.6c-0.8,0.9-2.3,3.1-3.4,3.7c-0.4,0.2-0.9,0.5-1.3,0.8c-0.4,0.3-0.6,0.6-1.1,0.7
			c-0.5,0.2-1.2,0.4-1.7,0.4c-0.6-0.1-1.2-0.4-1.7-0.6c-0.9-0.4-1.9-1.6-2.3-2.4c-0.5-1.1-1-2.2-1.4-3.3c-0.9-2.7-1.9-5.3-1.9-8.3
			c-0.1-1.1-0.1-2.2-0.1-3.2c-0.1-1.1-0.2-2.2-0.1-3.3c0.1-1,0.4-1.9,0.9-2.8c0.4-0.9,0.9-1.7,1.7-2.2c1.4-0.9,3.7-1.2,5.2-0.1
			c0.5,0.3,0.9,0.8,1,1.4c0.1,0.3,0.1,0.6,0.1,0.9c0.1,0.4,0.2,0.6,0.4,1c0.2,0.7-0.1,1.4-0.4,2.1c-0.4,0.6-0.4,1.4-0.7,2
			c-0.3,0.7-0.5,1.4-0.9,2.2c-0.3,0.4-0.9,0.8-1,1.4c-0.1,0.4,0,0.7,0.1,1.1c0.1,0.4,0.1,0.7,0.1,1.1c0.1,0.8,0.2,1.5,0.4,2.2
			c0.4,1.5,1.2,3,1.7,4.4c0.3,0.7,0.4,1.4,0.9,2c0.2,0.2,0.4,0.5,0.7,0.5s0.6-0.4,0.8-0.6c0.6-0.6,1.2-1.2,1.7-1.7
			c0.1,0,0.1,0,0.1,0c0.6-0.6,1.1-1.2,1.5-1.9c0.1-0.1,0.3-0.3,0.4-0.4c1.2-1.4,2.2-3,3.2-4.6c0.4-0.5,0.5-0.6,0.7-1.2
			c0.1-0.3,0.6-1.8,0.9-1.9c0.1-0.1,0.3-0.7,0.5-1.2h-0.1c0.1-0.1,0.1-0.1,0.2-0.3c0,0,0,0,0-0.1c0.1-0.1,0.2-0.3,0.3-0.4
			c0.1-0.1,0.1-0.2,0.1-0.4c0.1-0.1,0.1-0.2,0.2-0.3c0.1-0.1,0.2-0.1,0.3-0.1c0.3-0.2,0.5-0.6,0.7-0.7c0.1-0.1,0.4-0.1,0.6-0.5
			c0.3-0.4,0.4-0.8,0.7-1c0.4-0.1,0.6-0.5,0.9-0.7c0.2-0.3,0.3-0.6,0.6-0.8C484.5,451.6,484.7,451.4,484.9,451.4z M464.5,442.9
			c-0.4-0.6-0.7-1.4-0.6-2.1c0-0.7,0.3-1.5,0.9-2c0.2-0.2,0.6-0.3,0.9-0.4c0.2-0.1,0.8,0.1,1.1,0.1c1.5,0.3,2.5,1.9,2.7,3.4
			c0,0.1,0,0.1,0,0.2c0,0.1-0.1,1.6-0.9,1.9c-0.2,0.1-0.6,0.2-0.9,0.2c-0.2-0.1-0.4,0.1-0.6,0.1c-0.2,0.1-0.4,0-0.6-0.1
			C465.7,443.9,465,443.5,464.5,442.9z M466.1,452.5c0.1-0.5,0.4-1.9-0.6-1.5c-0.8,0.4-0.8,1.4-0.8,2.1c0,0.6,0,1.1,0.1,1.6
			c0,0.4,0.1,0.6,0.4,0.9c0.1-0.1,0.1-0.3,0.2-0.4C465.9,454.4,466,453.2,466.1,452.5z"/>
		<linearGradient id="SVGID_10_" gradientUnits="userSpaceOnUse" x1="240.9186" y1="455.0832" x2="603.0749" y2="455.0832">
			<stop  offset="0" style="stop-color:#C8A2C8"/>
			<stop  offset="0" style="stop-color:#53C9C0"/>
			<stop  offset="0" style="stop-color:#00FFFF"/>
			<stop  offset="0" style="stop-color:#FF00FF"/>
			<stop  offset="1" style="stop-color:#4B0082;stop-opacity:0.8"/>
			<stop  offset="1" style="stop-color:#8A4EA4;stop-opacity:0.9215"/>
			<stop  offset="1" style="stop-color:#000000;stop-opacity:0.8"/>
			<stop  offset="1" style="stop-color:#4E5715;stop-opacity:0.8231"/>
		</linearGradient>
		<path class="st13" d="M511.6,451.4c-0.1,0.4-0.3,0.9-0.4,1.2c-0.5,1-0.7,1.9-1.1,2.6c-0.4,0.6-0.6,1-0.9,1.7
			c-0.1,0.4-0.3,0.8-0.5,1.2c-0.1,0.3-0.4,0.6-0.6,0.9c0,0.1-0.1,0.1-0.1,0.1c-0.4,0.6-0.6,1.2-1.1,1.8l-0.1,0.3
			c-0.1,0.2-0.1,0.1-0.1,0.4c-0.8,1.4-1.5,2.8-2.2,4.2c-0.6,1.4-1.4,2.1-2.7,3c-0.4,0.2-0.6,0.4-0.9,0.4c-0.3,0-0.6-0.1-0.9,0.1
			c-0.6,0.3-1.2,0.5-1.9,0.4c-0.6-0.1-1.2-0.4-1.7-0.6c-0.1-0.1-0.1-0.1-0.2-0.1c-0.1-0.1-0.1-0.3-0.2-0.4c-0.1-0.1-0.1-0.2-0.3-0.3
			c-0.4-0.4-1.9-3.5-1.6-4.1c-0.3,0.6-1.2,1.3-1.3,1.9c0,0.1,0,0.2,0,0.3c-0.4,0.2-0.7,0.5-1,0.9c-0.2,0.2-0.5,0.5-0.6,0.8
			c-0.4,0.2-0.7,0.4-1.1,0.6c-0.6,0.4-1.4,0.7-2.2,0.7c-1.5,0.1-2.9-0.9-4.2-1.6c-0.3-0.1-0.7-0.4-1-0.4c-0.2,0.1-0.1,0.1-0.4,0
			c-0.1-0.1-0.2-0.2-0.4-0.3c-0.2-0.4-0.4-0.6-0.6-0.9c-0.1-0.1-0.2-0.3-0.4-0.4c0-0.1,0-0.2,0-0.3c-0.1-0.6-0.6-1.2-0.8-1.9
			c-0.1-0.6-0.2-1.4-0.1-2.1c0.1-1.6,0.4-3.2,0.6-4.8c0.5-3,1.6-6.1,3.2-8.8c0.4-0.6,0.9-1.2,1.4-1.8c0.5-0.5,1.1-0.5,1.7-0.8
			c1.2-0.5,2.7-1.4,4-0.4c0.5,0.4,0.6,1,1.2,1.4c0.1,0.1,0.4,0,0.5-0.1c0.4-0.1,0.7-0.3,1.1-0.4c0.8-0.3,1.6-0.3,2.4-0.2
			c0.3,0,0.6,0,0.9,0.2c0.3,0.3,0.5,0.5,0.7,0.8c0.5,0.6,0.9,1.2,1.2,1.9c0.3,0.6,0.3,1.4,0.4,2.1c0.1,1.6,0.3,3.2,0.5,4.8
			c0.3,1.6,0.4,3.2,0.5,4.8c0,1-0.1,2.2,0.4,3.1c0.8,1.7,3.9-4,4.5-4.5c0.9-0.6,1.4-1.8,1.9-2.6c0.1-0.1,0.1-0.2,0.1-0.4
			c0-0.1,0.1-0.2,0.2-0.3s0.1-0.1,0.2-0.1c0.4-0.2,0.5-0.6,0.7-0.7c0.1-0.1,0.4-0.1,0.6-0.5s0.4-0.8,0.7-1c0.3-0.1,0.6-0.5,0.8-0.7
			c0.2-0.3,0.4-0.6,0.6-0.8C511.2,451.6,511.4,451.4,511.6,451.4z M493.3,457.2c-0.1-0.3-0.1-0.6-0.1-0.9c0-0.1-0.1-0.4,0.1-0.4
			c-0.1-1.4-0.1-2.7-0.4-4c-0.1-0.6-0.3-1.2-0.4-1.7c-0.2-0.4-0.7-0.2-1.1,0c-0.5,0.2-0.7,0.7-1,1.2c-0.4,0.6-0.7,1.1-1.1,1.7
			c-0.3,0.5-0.4,1.2-0.6,1.7c-0.1,0.6-0.3,1.3-0.4,1.9c-0.3,1.3-0.4,2.6-0.5,3.9c0,0.6-0.1,1.4-0.1,2c0,0.6-0.1,1.2,0.3,1.7
			c0.2,0.4,0.8,1,1.2,1.1c0.5,0.1,1-0.6,1.2-0.9c0.7-1.2,1.8-3,1.9-3.1c0.1-0.1,0.3-0.5,0.4-0.6c0.3-0.6,0.4-1.4,0.6-2.2
			C493.4,458,493.3,457.6,493.3,457.2z"/>
		<linearGradient id="SVGID_11_" gradientUnits="userSpaceOnUse" x1="240.9186" y1="455.0832" x2="603.0749" y2="455.0832">
			<stop  offset="0" style="stop-color:#C8A2C8"/>
			<stop  offset="0" style="stop-color:#53C9C0"/>
			<stop  offset="0" style="stop-color:#00FFFF"/>
			<stop  offset="0" style="stop-color:#FF00FF"/>
			<stop  offset="1" style="stop-color:#4B0082;stop-opacity:0.8"/>
			<stop  offset="1" style="stop-color:#8A4EA4;stop-opacity:0.9215"/>
			<stop  offset="1" style="stop-color:#000000;stop-opacity:0.8"/>
			<stop  offset="1" style="stop-color:#4E5715;stop-opacity:0.8231"/>
		</linearGradient>
		<path class="st14" d="M533.7,451.4c-0.1,0.4-0.3,0.9-0.5,1.3c-0.4,0.9-0.6,1.8-1,2.5c-0.4,0.6-0.6,1-0.9,1.7
			c-0.1,0.3-0.2,0.6-0.4,0.9c0,0,0,0,0,0.1c-0.1,0.1-0.1,0.2-0.1,0.2c-0.1,0.1-0.1,0.1-0.1,0.3c-0.1,0.1-0.1,0.1-0.2,0.3
			c-0.1,0.1-0.1,0.2-0.2,0.4l-0.1,0.1c-0.1,0.1-0.2,0.3-0.3,0.4c-0.3,0.4-0.5,0.7-0.8,1.1c-0.1,0.3-0.2,0.6-0.4,0.9
			c-0.1,0.1-0.2,0.4-0.4,0.5c-0.8,1.2-1.7,2.2-2.4,3.4c-0.3,0.4-0.4,0.9-0.8,1.4c-0.6,0.9-1.3,1.8-1.9,2.7c0.1,1.2,0,2.2,0.1,3.3
			c0,0.8-0.1,1.5-0.1,2.3c-0.1,1.6-0.2,3.2-0.3,4.8c-0.1,0.8,0.1,1.6,0,2.4c-0.1,0.8-0.1,1.5-0.2,2.3c0,0.4,0,0.8-0.1,1.2
			c-0.1,0.4-0.1,0.6-0.1,1c-0.1,0.4,0.1,0.7,0.1,1.1c0,0.4-0.1,0.7-0.1,1.1c-0.1,0.7,0,1.4-0.2,2.1c-0.2,0.6-0.5,1.2-0.9,1.7
			c-0.7,0.9-2.2,1.4-3.4,1.3c-0.3,0-0.6,0.1-0.9,0.1c-1.4-0.4-2.6-1.3-4.1-1.4c-0.4-0.5-0.9-1-1.4-1.4c-0.3-0.3-0.6-0.5-0.9-0.7
			c-0.3-0.2-0.6-0.4-0.9-0.6c-0.5-0.5-1-1.1-1.4-1.7c-0.4-0.6-0.8-1.3-1.2-1.9c-0.4-0.6-0.7-1.2-0.4-1.9c0.7-1.4,1.4-2.8,2.1-4.2
			c0.4-0.6,0.6-1.4,1.1-2c0.4-0.5,0.9-0.9,1.2-1.4c1-1.2,1.9-2.2,3-3.5c0.2-0.2,0.3-0.5,0.6-0.7c0.3-0.2,0.6-0.4,0.9-0.6
			c0.6-0.4,0.9-0.8,0.9-1.5c0.1-1.4,0.3-5.1,0.3-6.6c-0.7,0.2-1.4,0.4-2,0.6c-0.4,0.1-0.7,0.1-1,0.3c-0.3,0.1-0.4,0.3-0.7,0.4
			c-0.6,0.1-1.3-0.2-1.8-0.4c-0.6-0.3-1.2-0.6-1.8-0.8c-0.6-0.3-1.2-0.5-1.6-1c-0.4-0.4-0.9-0.9-1.2-1.4c-0.7-1.1-1.3-2.2-1.5-3.5
			c-0.4-2.4-0.1-5.2,1.2-7.3c1.3-2.2,3.4-3.6,5.6-4.8c0.6-0.4,1.4-0.7,2.1-0.6c0.6,0.1,1.2,0.5,1.7,0.9s0.6,1.2,1,1.5
			c0.2,0.1,0.5,0.3,0.7,0.4c0.2,0.1,0.2,0.1,0.4-0.1c0.1-0.1,0.1-0.3,0.1-0.5c0.1-0.4,0.1-0.7,0.4-1.1c0.1-0.3,0.3-0.6,0.4-0.9
			c0.2-0.4,0.4-1,1-1c0.6,0.1,1.2,0.6,1.7,0.9c0.6,0.4,1.1,0.7,1.4,1.3c0.3,0.7,0.4,1.5,0.4,2.2c0.1,0.7,0,1.4,0.2,2.2
			c0.4,1.5,0.3,3,0.1,4.5c-0.4,3-0.6,6.1-0.6,9.2c0.4-0.4,0.9-0.8,1.2-1.3c0.3-0.5,0.4-0.9,0.9-1.5c0.9-0.9,2.2-2.9,3-4
			c0.4-0.4,0.6-0.9,0.9-1.5c0.1-0.1,0.1-0.2,0.1-0.4c0.1-0.1,0.2-0.1,0.3-0.3c0.1,0,0.1-0.1,0.2-0.1c0.3-0.2,0.5-0.6,0.7-0.7
			c0.1-0.1,0.4-0.1,0.6-0.5c0.2-0.4,0.4-0.8,0.7-0.9c0.3-0.2,0.6-0.6,0.8-0.8c0.2-0.2,0.4-0.5,0.6-0.8
			C533.3,451.7,533.5,451.5,533.7,451.4z M517.9,452.2c0.1-0.5-0.2-0.9-0.6-1.2c-0.2-0.1-0.6-0.4-0.9-0.3c-0.2,0.1-0.4,0.3-0.6,0.4
			c-1.2,0.5-1.8,1.2-2.4,2.2c-0.6,1.2-1.5,2.2-1.7,3.6c-0.2,1.4-0.4,2.8-0.1,4.2c0.1,0.6,0.3,1.3,0.9,1.7c0.4,0.3,1.2,0.2,1.6,0
			c0.6-0.2,1.1-0.8,1.5-1.2c0.5-0.4,1-0.9,1.4-1.4c0.5-0.6,0.4-1.2,0.4-1.9c0-0.6,0.1-1.3,0.1-1.9c0.1-1.4,0.1-1.4,0.3-2.8
			C517.5,455.6,518,451.7,517.9,452.2z M517.1,475.3c-0.7,0.9-1.9,1.2-2.2,2.4c-0.1,0.3-0.1,0.6-0.4,0.8c-0.3,0.2-0.6,0.3-0.9,0.6
			c-0.5,0.5-0.3,1.4-0.9,1.9c-0.4,0.4-0.4,0.5-0.4,1c0,0.4-0.2,0.9-0.4,1.3c-0.4,0.9-0.6,1.6-0.3,2.5c0.1,0.4,0.4,0.7,0.6,1.1
			c0.1,0.2,0.8,0.4,1.1,0.6c0.8,0.4,1.5,0.9,2.2,1.7c0.2-0.3,0.3-0.5,0.2-0.9s0-0.8,0-1.2c0.1-0.9,0.2-1.9,0.3-2.8
			c0.1-0.9,0.1-1.8,0.3-2.7c0.1-0.8,0.4-1.6,0.4-2.4c0-0.5,0-1,0-1.5c0-0.3-0.1-0.6,0-0.9C516.8,476.3,517.2,475.7,517.1,475.3z"/>
		<linearGradient id="SVGID_12_" gradientUnits="userSpaceOnUse" x1="240.9186" y1="455.0832" x2="603.0749" y2="455.0832">
			<stop  offset="0" style="stop-color:#C8A2C8"/>
			<stop  offset="0" style="stop-color:#53C9C0"/>
			<stop  offset="0" style="stop-color:#00FFFF"/>
			<stop  offset="0" style="stop-color:#FF00FF"/>
			<stop  offset="1" style="stop-color:#4B0082;stop-opacity:0.8"/>
			<stop  offset="1" style="stop-color:#8A4EA4;stop-opacity:0.9215"/>
			<stop  offset="1" style="stop-color:#000000;stop-opacity:0.8"/>
			<stop  offset="1" style="stop-color:#4E5715;stop-opacity:0.8231"/>
		</linearGradient>
		<path class="st15" d="M554,451.4c-0.1,0.4-0.2,0.9-0.4,1.2c-0.5,1-0.7,1.9-1.1,2.6c-0.3,0.6-0.6,1-0.9,1.7
			c-0.1,0.4-0.3,0.8-0.4,1.2c-0.2,0.3-0.4,0.6-0.6,0.9c0,0.1,0,0.1,0,0.1c-0.4,0.6-0.6,1.2-1.1,1.8c-0.4,0.6-0.9,1.4-1.2,2
			c-0.1,0.2-0.2,0.4-0.4,0.6l-0.1,0.1c-0.2,0.4-0.4,0.9-0.7,1.3c-0.4,0.3-0.6,0.6-0.9,0.9c-0.2,0.2-0.3,0.4-0.3,0.4
			s-0.3,0.2-0.3,0.3l-0.3,0.2c-0.6,0.4-0.6,0.3-1.1,0.8c0,0-0.4,0.4-0.4,0.3c0,0.1-0.2,0.2-0.2,0.2l-0.1,0.1c-0.6,0.6-1,0.8-1.7,1.2
			c-0.2,0.2-0.4,0.4-0.7,0.6c-0.8,0.3-1.5,0.5-2.3,0.5c-1.2,0-2.4-0.5-3.5-0.9c-0.1,0-0.1,0-0.2,0c-0.2-0.1-0.5-0.4-0.8-0.5
			c-0.2-0.1-0.4-0.3-0.6-0.5c-0.3-0.2-0.6-0.4-1-0.6c-0.3-0.2-0.5-0.5-0.8-0.7c-0.3-0.3-0.6-0.6-0.8-0.8c-0.1-0.1-0.4-0.5-0.6-0.5
			c-0.1-0.1-0.2-0.3-0.3-0.4c-0.1-0.4-0.4-0.6-0.5-1c-0.3-0.5-0.6-1-0.9-1.6c-1.4-2.6-1.9-5.8-1.7-8.7c0.1-1.6,0.6-3.2,1-4.7
			c0.4-1.4,1.2-2.7,2.2-3.7c0.4-0.5,0.7-1.1,1.2-1.5c0.4-0.4,0.9-0.6,1.5-0.9c0.7-0.3,1.4-0.4,2.2-0.7c0.6-0.2,1.2-0.4,1.9-0.3
			c0.6,0.1,1.3,0.6,1.9,0.8c0.5,0.2,1,0.6,1.4,1c0.9,0.9,1.2,2.2,1.4,3.5c0.1,0.7,0.1,1.5-0.2,2.3c-0.2,0.6-0.4,1.3-0.6,1.9
			c-0.5,1.4-1,2.7-2.1,3.7c-0.6,0.6-1.1,1.2-1.7,1.8c-0.2,0.3-0.4,0.5-0.6,0.8c-0.2,0.3-0.3,0.4-0.1,0.9c0.3,0.7,0.5,1.4,0.9,2.1
			c0.2,0.4,0.4,0.7,0.7,1.1c0,0.1,0,0.1,0,0.1c0.1,0.3,0.2,0.4,0.4,0.6c0.1,0.3,0.4,0.6,0.7,0.8c0,0.1,0.1,0.2,0.1,0.3
			c0.7,0.7,1.6,0.8,2.2,0.4h0.1c0.9-0.1,1.7-0.6,2.4-1.4c0.2-0.2,0.4-0.4,0.6-0.7c0.8-0.5,1.5-1.2,2.1-2c0.1,0,0.3-0.1,0.4-0.2
			c0.2-0.4,0.4-0.8,0.6-1.2c0.9-0.6,1.4-1.8,1.9-2.6c0.1-0.1,0.1-0.2,0.1-0.4c0.1-0.1,0.1-0.1,0.2-0.3c0.1-0.1,0.2-0.1,0.3-0.1
			c0.3-0.2,0.5-0.6,0.6-0.7c0.2-0.1,0.4-0.1,0.6-0.5s0.4-0.8,0.7-1c0.3-0.1,0.6-0.5,0.8-0.7c0.2-0.2,0.4-0.6,0.6-0.8
			C553.7,451.6,553.9,451.5,554,451.4z M535.2,455.6c0.5-1.1,1.4-1.9,1.9-3c0.4-0.9,0.6-2,0.8-3c0.2-1.1,0.4-2.3,0.1-3.4
			c-0.1-0.7-0.6-1.7-1.6-1.7c-0.5,0.1-0.9,0.6-1.2,0.9c-0.3,0.4-0.6,0.8-0.9,1.2c-0.6,0.9-0.9,1.8-1,2.9c0,1.1,0.3,2.2,0.6,3.2
			c0.2,0.6,0.4,1.1,0.6,1.7c0.1,0.4,0.3,0.9,0.5,1.3C535.2,455.6,535.2,455.7,535.2,455.6L535.2,455.6z"/>
		<linearGradient id="SVGID_13_" gradientUnits="userSpaceOnUse" x1="240.9186" y1="455.0832" x2="603.0749" y2="455.0832">
			<stop  offset="0" style="stop-color:#C8A2C8"/>
			<stop  offset="0" style="stop-color:#53C9C0"/>
			<stop  offset="0" style="stop-color:#00FFFF"/>
			<stop  offset="0" style="stop-color:#FF00FF"/>
			<stop  offset="1" style="stop-color:#4B0082;stop-opacity:0.8"/>
			<stop  offset="1" style="stop-color:#8A4EA4;stop-opacity:0.9215"/>
			<stop  offset="1" style="stop-color:#000000;stop-opacity:0.8"/>
			<stop  offset="1" style="stop-color:#4E5715;stop-opacity:0.8231"/>
		</linearGradient>
		<path class="st16" d="M576.1,454.8c0,0.8,0,1.6,0,2.4c0,1.3,0,2.6-0.1,3.8c-0.2,2.5-1.1,4.9-2.1,7.2c-0.5,1.1-0.9,2.4-1.6,3.4
			c-0.4,0.5-0.6,1-1,1.6c-0.4,0.4-0.6,1-1.2,1.4c-0.4,0.3-0.7,0.8-1.2,1c-0.5,0.1-1.2-0.1-1.7-0.2c-1-0.2-2.1-0.6-2.8-1.4
			c-0.5-0.5-0.8-1.3-0.9-1.9c-0.1-0.7-0.1-1.4-0.2-2.1c-0.1-0.9,0.1-1.7,0.2-2.4c0.1-0.7,0.1-1.4,0.1-2.2c0-1.6,0.2-3.2,0.3-4.8
			c0-0.9,0.1-1.7,0.1-2.6c0.1-0.7,0.2-1.5,0.1-2.2c-0.1-0.5-0.4-1.7-0.9-1.9c-0.6-0.2-1.3,0.6-1.7,1c-1,1-2.2,2.1-2.8,3.4
			c-0.7,1.4-1.3,2.8-1.9,4.2c-0.3,0.7-0.6,1.4-0.8,2.2c-0.1,0.6,0,1.2-0.2,1.9c-0.1,0.6-0.6,1.1-1.1,1.6c-0.4,0.4-0.7,1.3-1.2,1.4
			c-0.6,0.1-1.2-0.9-1.7-0.1c-0.4,0.6-0.8,0.5-1.4,0.1c-0.6-0.4-1.2-0.9-1.6-1.5c-0.3-0.6-0.3-1.2-0.2-1.9c0.1-0.9,0.3-1.7,0.3-2.4
			s0-1.5,0.1-2.3c0.4-1.6,0.3-3.2,0.3-4.9c0-1.6-0.1-3.2-0.1-4.9c0-0.9,0-1.7,0-2.6c0-0.4-0.1-0.8-0.1-1.2c0-0.3-0.1-0.8,0.1-1.1
			c0.1-0.3,0.6-0.2,0.9-0.2c0.3,0,0.6-0.1,1,0c0.6,0,1.2,0.3,1.7,0.7c0.5,0.5,1,0.9,1.3,1.6c0.2,0.6,0.2,1.4,0.2,2.1
			c0,0.8,0.1,1.7,0.1,2.5c0.1,0.2-0.1,0.8,0.1,0.9c0.2-0.2,0.4-0.4,0.6-0.6c0.9-1.2,1.8-2.6,3-3.5c0.6-0.4,1.3-0.8,1.8-1.2
			c0.6-0.4,1.1-0.8,1.7-1.1c1.3-0.7,2.6-1.2,4-1.2c0.9,0.1,1.7,0.3,2.4,0.4c0.6,0.1,1.4,0.1,2,0.4c1.4,0.5,2.3,1.6,3.3,2.6
			c0.6,0.6,1.2,1,1.7,1.7C575.9,452.5,576.1,453.6,576.1,454.8z"/>
		<linearGradient id="SVGID_14_" gradientUnits="userSpaceOnUse" x1="240.9186" y1="455.0832" x2="603.0749" y2="455.0832">
			<stop  offset="0" style="stop-color:#C8A2C8"/>
			<stop  offset="0" style="stop-color:#53C9C0"/>
			<stop  offset="0" style="stop-color:#00FFFF"/>
			<stop  offset="0" style="stop-color:#FF00FF"/>
			<stop  offset="1" style="stop-color:#4B0082;stop-opacity:0.8"/>
			<stop  offset="1" style="stop-color:#8A4EA4;stop-opacity:0.9215"/>
			<stop  offset="1" style="stop-color:#000000;stop-opacity:0.8"/>
			<stop  offset="1" style="stop-color:#4E5715;stop-opacity:0.8231"/>
		</linearGradient>
		<path class="st17" d="M599.6,452.6c0,0.1,0,0.1-0.1,0.3c-0.1,0.2-0.1,0.4-0.1,0.6c-0.1,0.1-0.1,0.2-0.1,0.4c0,0.1-0.1,0.1-0.1,0.2
			c0,0.1,0,0.1-0.1,0.1c0,0.1,0,0.1,0,0.1c-0.1,0.1-0.1,0.4-0.2,0.5c0,0.1,0,0.1,0,0.1c-0.1,0.1-0.2,0.3-0.3,0.4
			c-0.1,0.1-0.1,0.1-0.1,0.2c-0.1,0.1-0.2,0.2-0.3,0.4c-0.1,0-0.1,0.1-0.1,0.1s-0.1,0.1-0.2,0.1c-0.1,0-0.1,0.1-0.1,0.1
			c-0.1,0.1-0.2,0.1-0.3,0.2c-0.6,0.4-1.3,0.6-2.2,0.9c-1,0.2-1.9,0.5-2.7,0.8l0.1,0.1c0.2,0.6,0.4,1.2,0.6,1.7
			c0.1,0.3,0.3,0.6,0.5,0.9c0.3,0.6,0.4,1.2,0.4,1.8c0.1,0.9,0.1,1.7,0.1,2.5c0,0.1,0.1,0.2,0.2,0.4c0,0.4,0.1,0.9,0,1.1
			c-0.4,0.7-0.4,1.5-0.6,2.2c-0.3,0.9-0.6,1.7-0.9,2.5c-0.1,0.1-0.2,0.2-0.3,0.4c-0.1,0.1-0.3,0.2-0.4,0.4c-0.1,0.1-0.3,0.4-0.4,0.6
			c-0.1,0-0.1,0.1-0.1,0.1c0.1,0.4-0.1,0.4-0.3,0.6c-0.6,0.6-1.4,0.9-2.2,1.2c-0.5,0.1-1,0.4-1.5,0.6c-0.3,0.1-0.6,0.1-0.9,0.1
			c-0.8,0-1.7,0.1-2.4,0c-0.5-0.1-1.1-0.3-1.6-0.4c-0.3-0.1-0.6-0.1-0.8-0.3c-1.6-0.7-2.4-2.1-3-3.7c0-0.1,0-0.1,0-0.2
			c-0.1-0.6-0.1-1.2-0.1-1.7c0-0.9,0.1-1.7,0.4-2.5h-0.1c0.1-0.1,0.1-0.2,0.2-0.4c0.1-0.2,0.1-0.4,0.2-0.6c0,0,0.1-0.1,0.1-0.1
			c2.2-4.3,4.2-5,8.6-7.3c0.1,0-1.7-4-1.9-4.3c-0.4-0.9-0.8-1.7-1.2-2.4l-0.3,0.2c-0.1,0.1-0.1,0.2-0.1,0.4c-0.1,0-0.1,0.1-0.1,0.1
			c-0.4,0.4-0.9,1-1.2,1.5c0,0.1-0.1,0.1-0.1,0.1c-0.2,0.1-0.4,0.4-0.5,0.5c-0.2,0.2-0.4,0.5-0.6,0.8c0,0-0.1,0.1-0.1,0.1
			c-0.1,0-0.1,0.1-0.1,0.1l-0.1,0.1c-0.1,0.1-0.1,0.1-0.2,0.2c-0.1,0.1-0.3,0.3-0.4,0.4c-0.1,0.1-0.5,0.4-0.9,0.6
			c-0.1,0-0.1,0.1-0.1,0.1s0-0.1,0-0.2c0.1-0.1,0.3-0.3,0.3-0.4c0.3-0.6,0.5-1,0.7-1.6c0.3-0.6,0.6-1.2,0.8-1.8
			c0.1-0.2,0.5-0.9,0.8-1.3l1-2.3c-0.4-0.7-0.6-1.5-0.9-2.4c-0.1-0.6-0.2-1.3-0.3-1.9c0-0.2,0.1-0.4,0.1-0.6s0.1-0.5,0.3-0.7
			c0.4-0.6,0.5-1.2,1-1.7c0.6-0.7,0.9-0.9,1.8-1c0.7-0.1,1.3-0.3,1.9-0.1c0.6,0.3,1.3,0.6,1.7,1.3c0.4,0.7,0.5,1.5,0.6,2.3
			c0,0.2,0,0.4,0,0.6c-0.1,0.6-0.4,1.2-0.6,1.8c-0.2,0.7-0.6,1.9-1.2,2.4c-0.3,0.2-0.5,0.6-0.6,0.9c-0.1,0.1,0.2,0.5,0.3,0.6
			c0.2,0.4,0.4,0.9,0.6,1.2c1,1.7,2.2,3.5,3.1,5.3c0.5-0.1,0.9-0.2,1.4-0.4c0.7-0.1,1.4-0.3,2.1-0.5c0.5-0.1,0.9-0.3,1.4-0.5
			c0.1,0,0.1,0,0.2-0.1c0.7-0.3,1.2-0.9,1.4-1c0.4-0.4,0.3-0.4,0.8-1.1c0-0.1,0-0.1,0.1-0.1c0.1-0.2,0.1-0.4,0.2-0.5
			C599.6,452.5,599.6,452.5,599.6,452.6z M589.8,463.3c-0.1-0.9-0.1-1.8-0.3-2.6c-0.1-0.5-0.2-0.9-0.4-1.4c-2.1,1-3.4,1.9-4,2.8
			c-0.5,0.7-0.9,1.5-1.2,2.3c-0.2,0.4-0.3,0.9-0.1,1.4c0.1,0.6,0.3,1.3,0.6,1.9c0.2,0.4,0.6,0.9,1.2,0.8c0.4,0,0.9,0,1.4-0.1
			c0.6-0.1,1.2-0.2,1.6-0.7c0.1-0.2,0.4-0.4,0.5-0.6c0.7-0.6,0.9-1.5,1-2.4C589.9,464.3,589.8,463.8,589.8,463.3z M587.5,443.9
			c-0.1-0.6-0.9-1-1.4-0.6c-0.6,0.4-0.5,1.4-0.5,2.1c0.1,0.8,0.4,0.9,0.7,1.6c0.1,0.1,0.1,0.1,0.1,0.1c0.1-0.1,0.3-0.3,0.4-0.5
			C587.2,445.8,587.6,444.9,587.5,443.9z"/>
	</g>
</g>
</svg>
